<svg xmlns="http://www.w3.org/2000/svg" width="379" height="269" fill="none" viewBox="0 0 379 269"><mask id="a" width="379" height="269" x="0" y="0" maskUnits="userSpaceOnUse" style="mask-type:luminance"><path fill="#fff" d="M0 0h378.842v269H0z"/></mask><g mask="url(#a)"><path fill="#e6a386" fill-rule="evenodd" d="M300.165 196.605c-8.022 13.579-17.061 23.199-28.232 31.023-8.177 5.729-16.944 10.259-26.243 13.651-9.525 3.472-19.412 5.892-29.491 7.422-14.636 2.222-29.335 3.051-44.161 2.396-16.487-.727-32.461-3.869-47.662-10.293-5.581-2.36-11.162-5.015-15.987-8.918-3.65-2.953-7.805-5.367-11.099-8.654-4.792-4.78-9.357-9.879-13.404-15.296-8.142-10.891-12.796-23.303-14.465-36.716-.915-7.339-1.859-14.744-1.812-22.107.051-7.638 1.2-15.269 2.025-22.886a459 459 0 0 1 2.475-19.306c1.42-9.378 2.461-18.865 4.69-28.053 2.838-11.701 5.761-23.499 12.022-34.017 6.068-10.197 13.881-18.893 24.274-24.752 9.099-5.129 19.111-7.318 29.733-7.168 11.735.164 22.372 3.931 32.289 9.611 7.244 4.149 13.887 9.343 20.051 15.074 5.079 4.72 10.094 9.56 15.576 13.778 5.771 4.441 11.538 8.982 18.151 12.233l28.074 13.966c8.169 4.193 15.642 9.454 22.779 15.235 5.855 4.741 10.86 10.257 15.021 16.43 7.823 11.608 13.605 24.013 14.739 38.248.675 8.464 1.072 16.86-.812 25.17-.917 4.049-2.021 8.087-3.456 11.974-1.747 4.733-3.932 9.301-5.075 11.956z" clip-rule="evenodd" opacity=".212" style="mix-blend-mode:multiply"/></g><path stroke="#fa6666" stroke-linejoin="round" stroke-width="3.934" d="M304.349 175.292H96.462l-31.03 37.382h212.359z"/><path stroke="#fa6666" stroke-linecap="round" stroke-linejoin="round" stroke-width="3.934" d="m104.748 175.292 11.089 36.372m41.332-36.372 12.097 39.403m40.323-39.403 14.113 39.403m40.324-39.403 11.089 37.382"/><path stroke="#fa6666" stroke-linecap="round" stroke-linejoin="round" stroke-width="7.868" d="m290.235 153.065 44.356 61.63"/><path stroke="#00455d" stroke-linecap="round" stroke-linejoin="round" stroke-width="1.868" d="M294.248 169.23h6.3c5.439 0 9.849-2.575 9.849-7.839s-4.41-9.337-9.849-9.337h-15.353"/><path stroke="#00455d" stroke-linecap="round" stroke-linejoin="round" stroke-width="1.868" d="M294.074 151.044h-8.879l44.979 61.5s2.124 4.532 4.44 2.743.193-4.471-2.703-7.92-39.801-55.923-39.801-55.923"/><path stroke="#00455d" stroke-linecap="round" stroke-linejoin="round" stroke-width="1.868" d="m306.366 180.036-27.52 37.434H66.231c-4.187-.576-2.463-3.189-2.463-3.189l32.762-41.01h205.016"/><path stroke="#00455d" stroke-linejoin="round" stroke-width="1.868" d="M299.308 178.323h-30.243l8.803 31.32zm-83.671 0 9.733 32.331h46.72l-9.247-32.331zm-54.437 0 10.425 32.074 47.036.257-10.425-32.331z"/><path stroke="#353e48" stroke-linejoin="round" stroke-width="1.868" d="m107.772 178.323 10.112 32.331h47.349l-10.111-32.331z"/><path stroke="#00455d" stroke-linejoin="round" stroke-width="1.705" d="m70.473 212.674 26.574-34.351h5.257l9.501 34.351z"/><path fill="#fa6666" fill-rule="evenodd" stroke="#00455d" stroke-linejoin="round" stroke-width="1.868" d="M99.708 215.2c0 19.809-15.797 35.867-35.283 35.867S29.142 235.009 29.142 215.2s15.797-35.867 35.283-35.867 35.283 16.058 35.283 35.867Zm270.167 0c0 19.809-15.797 35.867-35.283 35.867s-35.283-16.058-35.283-35.867 15.797-35.867 35.283-35.867 35.283 16.058 35.283 35.867Z" clip-rule="evenodd"/><path stroke="#00455d" stroke-linejoin="round" stroke-width="1.868" d="M78.537 214.695c0 7.254-5.867 13.134-13.105 13.134s-13.105-5.88-13.105-13.134 5.868-13.134 13.105-13.134 13.105 5.88 13.105 13.134Z"/><path fill="#97cad1" d="M124.91 214.19a9.59 9.59 0 0 1-9.577 9.598 9.597 9.597 0 0 1 0-19.196 9.59 9.59 0 0 1 9.577 9.598"/><path stroke="#00455d" stroke-linejoin="round" stroke-width="1.868" d="M124.91 214.19a9.59 9.59 0 0 1-9.577 9.598 9.597 9.597 0 0 1 0-19.196 9.59 9.59 0 0 1 9.577 9.598Z"/><path fill="#97cad1" d="M179.347 214.19a9.593 9.593 0 0 1-9.577 9.598 9.597 9.597 0 1 1 0-19.196 9.59 9.59 0 0 1 9.577 9.598"/><path stroke="#00455d" stroke-linejoin="round" stroke-width="1.868" d="M179.347 214.19a9.593 9.593 0 0 1-9.577 9.598 9.597 9.597 0 1 1 0-19.196 9.59 9.59 0 0 1 9.577 9.598Z"/><path fill="#97cad1" d="M233.783 214.19a9.593 9.593 0 0 1-9.577 9.598c-5.289 0-9.576-4.297-9.576-9.598s4.287-9.598 9.576-9.598a9.59 9.59 0 0 1 9.577 9.598"/><path stroke="#00455d" stroke-linejoin="round" stroke-width="1.868" d="M233.783 214.19a9.593 9.593 0 0 1-9.577 9.598c-5.289 0-9.576-4.297-9.576-9.598s4.287-9.598 9.576-9.598a9.59 9.59 0 0 1 9.577 9.598Z"/><path fill="#97cad1" d="M287.212 214.19a9.59 9.59 0 0 1-9.577 9.598 9.6 9.6 0 0 1 0-19.196 9.59 9.59 0 0 1 9.577 9.598"/><path stroke="#00455d" stroke-linejoin="round" stroke-width="1.868" d="M287.212 214.19a9.59 9.59 0 0 1-9.577 9.598 9.6 9.6 0 0 1 0-19.196 9.59 9.59 0 0 1 9.577 9.598Z"/><path stroke="#353e48" stroke-linejoin="round" stroke-width="1.868" d="M343.665 214.19a9.59 9.59 0 0 1-9.577 9.598 9.6 9.6 0 0 1 0-19.196 9.59 9.59 0 0 1 9.577 9.598Z"/><path fill="#0098ab" fill-rule="evenodd" d="m86.64 99.518-9.11 48.069s4.048 3.499 5.783 2.13 6.796-7.302 12.434-7.15l2.024.152s-.884-6.084 1.871-10.039 15.191-31.641-13.003-33.162" clip-rule="evenodd"/><path fill="#f6f7f8" fill-rule="evenodd" d="M102.728 169.372c13.184 8.041 12.135 5.37 13.783 9.039s15.581 22.14 15.581 22.14l7.94-7.178s-19.776-31.477-42.547-48.97c0 0-5.693-1.644-7.791 1.495s-5.843 6.28-9.14 5.532c0 0 .45 7.327 22.174 17.942" clip-rule="evenodd"/><path fill="#efdecc" fill-rule="evenodd" d="M125.918 148.014s8.214-3.375 13.591-3.068 9.558-.768 9.558-.768 3.883-20.412-.747-24.248l9.857-5.679s-1.045-20.257-16.129-26.857c0 0-7.617 2.456-12.844 36.219zm1.008 1.681s.152 4.773 2.745 7.082 26.976 14.934 26.976 14.934 15.121 16.013 18.325 21.094 7.473 10.777 7.473 10.777l8.999-7.902s-13.27-32.59-41.792-49.68c0 0-10.067-.154-14.795 1.077s-7.931 2.618-7.931 2.618" clip-rule="evenodd"/><path fill="#0098ab" fill-rule="evenodd" d="M184.186 146.68s-1.816 6.945 0 10.261 28.376 23.403 28.376 23.403l7.108-12.092-16.647-20.477s-3.741-2.386-5.612-1.095-7.26.479-8.4-.383-4.825.383-4.825.383" clip-rule="evenodd"/><path fill="#f6f7f8" fill-rule="evenodd" d="M201.758 97.497s9.282 5.767 9.548 20.764 1.611 17.689 1.611 17.689l2.721 3.706-4.332 4.368-5.123-2.499-1.539 7.498s-2.502-3.408-6.157-3.242-5.965 1.757-10.198 0-6.926-.918-6.926-.918z" clip-rule="evenodd"/><path fill="#fff" fill-rule="evenodd" d="m224.903 85.373-3.52 3.021s1.387 2.913.107 4.748c-1.134 1.625-2.24 4.072-4.373 4.356s-3.733 2.011-4.373 4.384 1.28 5.719 1.28 5.719l14.719-19.853z" clip-rule="evenodd"/><path fill="#efdecc" fill-rule="evenodd" d="M220.602 83.37s-2.111 8.376-21.233 4.355c-2.932-1.001-11.144 1.906-13.021 3.024s-8.681 1.331-9.854-3.024 4.01-5.362 5.113-5.362 4.623-2.683 2.16-5.591c-1.407-1.342 4.341-2.907 9.854-1.789s13.725-1.657 19.239-.381 8.328 6.419 7.742 8.768" clip-rule="evenodd"/><path fill="#fa6666" fill-rule="evenodd" d="m229.704 38.898-23.139 13.45 27.218 8.777z" clip-rule="evenodd"/><path fill="#fff" fill-rule="evenodd" d="M243.767 104.277s-6.899 14.481-7.717 22.486-3.275 27.313-3.275 27.313l23.271-3.767s-1.637-5.298 0-9.419 5.262-17.306 5.262-17.306l-3.859-2.118 4.561-13.068s-9.238-7.064-18.243-4.121" clip-rule="evenodd"/><path fill="#efdecc" fill-rule="evenodd" d="M237.816 156.733s15.214 13.683 20.936 16.539l11.322-12.184-13.619-10.043z" clip-rule="evenodd"/><path fill="#0098ab" fill-rule="evenodd" d="M142.08 68.197s-.915-9.23 6.954-11.673 14.183 5.837 14.183 5.837zm155.213 143.475 4.435 8.075s6.452-5.152 6.586-7.101 2.151-2.784 2.688-2.784 8.469-9.466 8.469-9.466-2.689-3.481-5.781-2.785-8.064 3.48-8.064 3.48-1.613 7.009-5.108 7.541z" clip-rule="evenodd"/><path stroke="#00455d" stroke-linecap="round" stroke-linejoin="round" stroke-width="1.868" d="m227.735 157.106 19.153 15.155"/><path stroke="#00455d" stroke-linecap="round" stroke-linejoin="round" stroke-width="1.705" d="M205.861 90.424s-3.081 7.225-5.991 7.403c-2.397 5.053-19.515 49.18-19.515 49.18s3.937-2.123 6.505-.875 4.793 2.631 8.217 1.404 7.531-.671 9.244.477l3.252-5.803"/><path stroke="#00455d" stroke-linecap="round" stroke-linejoin="round" stroke-width="1.868" d="m199.509 112.103 4.398 21.82c.917 3.07 3.482 7.635 8.43 10.138s8.796 7.487 8.796 10.321 5.865 3.734 5.865 3.734 5.131-3.099-2.2-11.028-12.644-11.979-12.644-11.979 3.849-30.046-4.581-33.571m6.082 8.083 28.193-35.944s.181-2.719-3.638-2.155l-3.093-3.325s-5.628 5.028-5.178 6.226 2.814 2.256.631 4.732-8.731 8.486-8.731 8.486 1.637 6.894-2 7.778-9.459 4.035-8.004 8.192"/><path stroke="#00455d" stroke-linecap="round" stroke-linejoin="round" stroke-width="1.705" d="M221.686 82.343s0-10.174-12.097-11.115m7.057 7.074s-.713-4.838-11.765-3.928-13.37.576-17.47-.114m25.202 4.605s-5.928-1.518-9.241-.097c-2.093 1.243-8.893.13-12.729-1.088s-10.288.816-10.288.816m37.299 2.836s-3.86 3.75-23.51.917c-9.47 0-13.789 3.124-13.789 3.124m38.307 0s-7.167 3.103-16.432 1.618c-9.265-1.484-13.811.403-13.811.403"/><path fill="#0098ab" d="M243.636 195.499s6.984 10.466 9.312 10.201 6.079-6.094 9.054-5.829 4.785.687 5.044 1.469-12.416 18.668-13.452 18.404-5.173-7.552-5.173-7.552l-10.605-4.57 2.328-5.366"/><path stroke="#00455d" stroke-linecap="round" stroke-linejoin="round" stroke-width="1.868" d="M243.636 195.499s6.984 10.466 9.312 10.201 6.079-6.094 9.054-5.829 4.785.687 5.044 1.469-12.416 18.668-13.452 18.404-5.173-7.552-5.173-7.552l-10.605-4.57 2.328-5.366"/><path fill="#fff" d="M222.694 150.539a3.53 3.53 0 0 1-3.528 3.536 3.53 3.53 0 0 1-3.528-3.536 3.53 3.53 0 0 1 3.528-3.536 3.53 3.53 0 0 1 3.528 3.536"/><path stroke="#00455d" stroke-linejoin="bevel" stroke-width="1.868" d="M222.695 150.539a3.53 3.53 0 0 1-3.528 3.536 3.53 3.53 0 0 1-3.528-3.536 3.53 3.53 0 0 1 3.528-3.536 3.53 3.53 0 0 1 3.528 3.536Z"/><path stroke="#00455d" stroke-linecap="round" stroke-linejoin="round" stroke-width="1.868" d="m238.824 87.394-7.6-51.527s-24.659 15.47-24.659 17.571 30.076 12.603 30.076 12.603m-25.036 78.941 6.049-6.062"/><path stroke="#00455d" stroke-linecap="round" stroke-linejoin="round" stroke-width="1.705" d="M145.631 82.342s-8.995 8.568-12.047 22.334l-8.674 41.793s5.943 2.056 14.136-1.902c4.497-1.901 13.813-1.109 13.813-1.109s-.963-11.4 1.285-15.358"/><path stroke="#00455d" stroke-linecap="round" stroke-linejoin="round" stroke-width="1.705" d="m145.393 119.724 15.756-6.973s1.886-20.762-17.085-29.4m-4.033 21.218 7.057 14.145m13.988-3.031s7.939 21.133 11.474 25.459 4.765 11.277 2.92 13.593-3.534 4.568-6.147 2.671-1.076-2.569-2.305-3.624 2.766-6.556 2.766-6.556-15.522-11.185-19.672-27.636"/><path fill="#fff" d="M169.266 150.539a3.53 3.53 0 0 1-3.528 3.536 3.533 3.533 0 0 1-3.529-3.536 3.53 3.53 0 0 1 3.529-3.536 3.53 3.53 0 0 1 3.528 3.536"/><path stroke="#00455d" stroke-linejoin="bevel" stroke-width="1.705" d="M169.265 150.539a3.53 3.53 0 0 1-3.528 3.536 3.533 3.533 0 0 1-3.529-3.536 3.53 3.53 0 0 1 3.529-3.536 3.53 3.53 0 0 1 3.528 3.536Z"/><path stroke="#00455d" stroke-linecap="round" stroke-linejoin="bevel" stroke-width="1.705" d="M156.028 93.455s-3.293-10.099 2.888-11.358 10.205 1.28 10.349-9.859m-40.324.001s14.756-2.254 25.413-5.568 11.886-3.997 11.886-3.997-2.416-8.608-12.889-7.515-9.545 12.707-9.545 12.707"/><path stroke="#00455d" stroke-linecap="round" stroke-linejoin="round" stroke-width="1.705" d="M142.214 70.218s-1.287 5.863 3.289 6.895c0 0-2.392 3.881 2.593 3.105m6.048-11.01s-4.536 3.776 0 7.072"/><path stroke="#00455d" stroke-linecap="round" stroke-linejoin="round" stroke-width="1.868" d="M159.185 67.999s-.14 3.572 3.216 3.202 3.356-3.202 3.356-3.202 2.237 2.34 4.334.986.979-3.449 0-3.818"/><path stroke="#00455d" stroke-linecap="round" stroke-linejoin="round" stroke-width="1.705" d="M126.933 147.271s-.415 6.863 5.128 9.783 29.105 16.327 29.105 16.327l21.345 30.201 10.949-9.032s-12.197-30.918-42.465-51.587m24.319 14.144 19.154 15.155"/><path fill="#0098ab" d="m186.403 200.328 3.507 4.799s-1.158 2.731-.772 3.642 4.645 7.542 5.476 6.891 20.381-20.026 20.967-21.717-3.479-4.362-6.402-3.221l-13.478 5.302-1.087-2.416"/><path stroke="#353e48" stroke-linecap="round" stroke-linejoin="round" stroke-width="1.705" d="m186.403 200.327 3.507 4.799s-1.158 2.731-.772 3.642 4.645 7.542 5.476 6.891 20.381-20.026 20.967-21.717-3.479-4.362-6.402-3.221l-13.478 5.302-1.087-2.416"/><path stroke="#353e48" stroke-linecap="round" stroke-linejoin="round" stroke-width="1.705" d="M195.045 196.509s2.747 7.794-5.617 9.093"/><path stroke="#00455d" stroke-linecap="round" stroke-linejoin="round" stroke-width="1.705" d="m144.662 148.013-2.615 6.055 11.539 7.113c2.45 1.376 6.271 1.454 7.615-.782M147.088 149.022l-2.016 6.062"/><path stroke="#00455d" stroke-linecap="round" stroke-linejoin="bevel" stroke-width="1.868" d="M94.103 91.435s-8.294 5.552-14.137 50.537c-.942 6.318-.942 15.315 7.069 19.718l27.616 15.123 16.964 23.737s7.729-4.785 9.425-8.997c0 0-18.284-28.523-37.699-44.604"/><path stroke="#00455d" stroke-linecap="round" stroke-linejoin="bevel" stroke-width="1.705" d="M92.697 98.507s22.468 8.146 12.545 27.657c0 0-4.63 5.58-5.007 17.271 0 0-8.852-.935-10.547 2.183s-4.776 6.079-8.011 5.3-5.24-1.715-6.163-.779"/><path stroke="#00455d" stroke-linecap="round" stroke-linejoin="round" stroke-width="1.705" d="M88.66 101.538s-1.28 20.398 10.627 32.394 17.117 17.993 17.117 17.993l-2.046 1.548 5.395 4.643s3.163-5.61-1.116-11.028-18.372-24.958-18.372-24.958v-15.284"/><path stroke="#00455d" stroke-linecap="round" stroke-linejoin="bevel" stroke-width="1.868" d="M89.627 74.705s2.736-8.842 11.437-8.52 11.963 8.842 11.963 10.61.932 3.055.776 6.11c-.156 3.053-1.013 13.181-7.809 12.055s-1.998 10.619-1.998 10.619M86.603 78.3s.166 8.14 9.073 11.114m16.129-13.118s-6.258-.636-9.073 6.046"/><path fill="#fff" d="M116.845 150.539a3.53 3.53 0 0 1-3.528 3.536 3.53 3.53 0 0 1-3.528-3.536 3.53 3.53 0 0 1 3.528-3.536 3.53 3.53 0 0 1 3.528 3.536"/><path stroke="#00455d" stroke-linejoin="bevel" stroke-width="1.705" d="M116.845 150.539a3.53 3.53 0 0 1-3.528 3.536 3.53 3.53 0 0 1-3.528-3.536 3.53 3.53 0 0 1 3.528-3.536 3.53 3.53 0 0 1 3.528 3.536Z"/><path stroke="#00455d" stroke-linecap="round" stroke-linejoin="bevel" stroke-width="1.705" d="m120.878 155.085 20.161 16.166"/><path fill="#0098ab" d="m137.007 197.872 3.67 7.458s-1.259 3.1.647 4.852a37 37 0 0 1 3.324 3.503l4.255-4.582s.152-2.877.856-3.325 8.708-4.085 11.442-10.418c0 0-1.379-5.929-10.171-.809-3.687 1.752-5.247 2.695-5.247 2.695s-1.986 6.198-3.546 7.141"/><path stroke="#353e48" stroke-linecap="round" stroke-linejoin="round" stroke-width="1.705" d="m137.007 197.872 3.67 7.458s-1.259 3.1.647 4.852a37 37 0 0 1 3.324 3.503l4.255-4.582s.152-2.877.856-3.325 8.708-4.085 11.442-10.418c0 0-1.379-5.929-10.171-.809-3.687 1.752-5.247 2.695-5.247 2.695s-1.986 6.198-3.546 7.141M303.293 200.55s.89 5.725-4.992 6.062"/><path stroke="#00455d" stroke-linecap="round" stroke-linejoin="round" stroke-width="1.868" d="M236.808 150.034s3.558-32.636 6.636-38.382 9.745-16.882 5.936-22.189-7.237-10.242-5.714-11.624 16.19-5.809 17.333-4.269 7.049 13.996 7.049 15.659.571 6.966-6.668 8.741c-2.857 1.39-2.285 7.549-2.285 7.549m-11.199-.95s12.903 1.516 25.998 13.987 27.731 24.176 28.501 26.503 2.888 11.221-3.659 8.506c-3.082-1.745-2.311-6.713-2.311-6.713l-46.987-30.643"/><path stroke="#00455d" stroke-linecap="round" stroke-linejoin="round" stroke-width="1.868" d="m263.017 124.776-5.041 19.196m-8.422 2.492s8.692-1.061 8.499 0 2.865 6.464 5.489 7.21 9.577 4.767 8.418 6.491-11.782 15.127-11.782 15.127-21.633-15.346-23.371-19.545m-4.033-.662 22.178-5.051m2.016-66.682 7.057-2.02m-4.044 5.051s-3.165.726-3.007 2.911 2.515 3.151 4.027 3.151"/><path fill="#97cad1" fill-rule="evenodd" d="m213.622 178.788 6.063 3.724s3.58 5.044 8.051 8.527 12.711 9.511 12.711 9.511l3.417-6.132-21.445-26.198zm50.404-7.395 13.334 8.342 19.322 28.898s8.303-1.515 6.254-6.957c-2.156-5.724-16.43-30.283-16.43-30.283l-14.855-9.235z" clip-rule="evenodd"/><path stroke="#00455d" stroke-linecap="round" stroke-linejoin="round" stroke-width="1.868" d="M290.54 210.324s3.616-2.314 5.71 0 3.616 7.521 5.329 6.171 17.892-20.056 17.892-20.056-2.094-2.683-5.901-2.21-11.055 5.699-11.055 5.699l-14.64-27.808c-2.094-4.263-12.76-10.973-12.76-10.973m-12.097 11.114 14.588 7.802 19.687 28.57m-82.342-28.788s3.821 2.987 5.503 3.636c0 0 2.286 6.363 5.67 8.052 2.738 1.766 14.248 11.038 14.248 11.038l3.492-6.623s-27.679-39.738-34.275-43.894m-25.534-7.072s-2.364 10.087 1.749 14.659 26.865 20.703 26.865 20.703l10.025-12.066"/></svg>