<svg width="20" height="20" viewBox="0 0 20 20" fill="none" xmlns="http://www.w3.org/2000/svg">
<g clip-path="url(#clip0_2_2389)">
<g clip-path="url(#clip1_2_2389)">
<g clip-path="url(#clip2_2_2389)">
<path d="M17.7775 0.833008H2.2219C1.45483 0.833008 0.833008 1.45483 0.833008 2.2219V17.7775C0.833008 18.5445 1.45483 19.1663 2.2219 19.1663H17.7775C18.5445 19.1663 19.1663 18.5445 19.1663 17.7775V2.2219C19.1663 1.45483 18.5445 0.833008 17.7775 0.833008Z" stroke="#008294" stroke-width="1.66667"/>
<path d="M10.0036 11.6663C10.9241 11.6663 11.6702 10.9201 11.6702 9.99967C11.6702 9.0792 10.9241 8.33301 10.0036 8.33301C9.08311 8.33301 8.33691 9.0792 8.33691 9.99967C8.33691 10.9201 9.08311 11.6663 10.0036 11.6663Z" fill="#008294"/>
<path d="M14.4333 16.1038C15.3537 16.1038 16.0999 15.3576 16.0999 14.4372C16.0999 13.5167 15.3537 12.7705 14.4333 12.7705C13.5128 12.7705 12.7666 13.5167 12.7666 14.4372C12.7666 15.3576 13.5128 16.1038 14.4333 16.1038Z" fill="#008294"/>
<path d="M5.56706 7.22982C6.48753 7.22982 7.23372 6.48363 7.23372 5.56315C7.23372 4.64268 6.48753 3.89648 5.56706 3.89648C4.64658 3.89648 3.90039 4.64268 3.90039 5.56315C3.90039 6.48363 4.64658 7.22982 5.56706 7.22982Z" fill="#008294"/>
</g>
</g>
</g>
<defs>
<clipPath id="clip0_2_2389">
<rect width="20" height="20" fill="white"/>
</clipPath>
<clipPath id="clip1_2_2389">
<rect width="20" height="20" fill="white"/>
</clipPath>
<clipPath id="clip2_2_2389">
<rect width="20" height="20" fill="white"/>
</clipPath>
</defs>
</svg>
