<svg width="20" height="20" viewBox="0 0 20 20" fill="none" xmlns="http://www.w3.org/2000/svg">
<g clip-path="url(#clip0_2_2349)">
<g clip-path="url(#clip1_2_2349)">
<path fill-rule="evenodd" clip-rule="evenodd" d="M0.677734 17.2594C1.13284 17.4689 1.59631 17.6635 2.06749 17.8423C4.50026 18.7656 7.13873 19.2711 9.89526 19.2711C12.6528 19.2711 15.2922 18.7652 17.7257 17.8413C18.1968 17.6624 18.6602 17.4678 19.1153 17.2582L18.4029 15.9347L17.4662 14.1945L16.6895 12.7513L10.7486 1.71424L9.89683 0.131836L9.04508 1.71424L1.39016 15.9358L0.677734 17.2594ZM9.89683 3.29665L15.2784 13.2946C13.5875 13.8599 11.778 14.1661 9.89696 14.1661C8.01586 14.1661 6.20628 13.8598 4.51536 13.2945L9.89683 3.29665ZM9.89696 15.7997C7.73548 15.7997 5.66014 15.4309 3.73044 14.7528L2.78504 16.5092C4.99937 17.3251 7.39387 17.7711 9.89526 17.7711C12.3977 17.7711 14.7931 17.3248 17.0081 16.5082L16.0633 14.7529C14.1336 15.4309 12.0584 15.7997 9.89696 15.7997ZM11.5003 12.0002C12.0526 12.0002 12.5003 11.5525 12.5003 11.0002C12.5003 10.4479 12.0526 10.0002 11.5003 10.0002C10.948 10.0002 10.5002 10.4479 10.5002 11.0002C10.5002 11.5525 10.948 12.0002 11.5003 12.0002ZM9.18702 12.0002C9.18702 12.5525 8.7393 13.0002 8.18702 13.0002C7.63473 13.0002 7.18702 12.5525 7.18702 12.0002C7.18702 11.4479 7.63473 11.0002 8.18702 11.0002C8.7393 11.0002 9.18702 11.4479 9.18702 12.0002ZM9.82593 9.00024C10.3782 9.00024 10.826 8.55253 10.826 8.00024C10.826 7.44795 10.3782 7.00024 9.82593 7.00024C9.27365 7.00024 8.82593 7.44795 8.82593 8.00024C8.82593 8.55253 9.27365 9.00024 9.82593 9.00024Z" fill="#7A1D47"/>
</g>
</g>
<defs>
<clipPath id="clip0_2_2349">
<rect width="20" height="20" fill="white"/>
</clipPath>
<clipPath id="clip1_2_2349">
<rect width="19" height="20" fill="white" transform="translate(0.5)"/>
</clipPath>
</defs>
</svg>
