<svg width="20" height="20" viewBox="0 0 20 20" fill="none" xmlns="http://www.w3.org/2000/svg">
<g clip-path="url(#clip0_2_2361)">
<g clip-path="url(#clip1_2_2361)">
<g clip-path="url(#clip2_2_2361)">
<path fill-rule="evenodd" clip-rule="evenodd" d="M11.8128 18.3063C11.2287 18.4332 10.6221 18.5 10 18.5C9.3517 18.5 8.72034 18.4274 8.11362 18.2899L7.32814 15.7803L8.26671 14.1547H11.7985L12.56 15.9188L11.8128 18.3063ZM13.5691 17.7166C14.307 17.3748 14.9876 16.9302 15.5925 16.4012L13.9975 16.3479L13.5691 17.7166ZM16.9146 14.9446C17.7858 13.7286 18.3441 12.2732 18.4719 10.6961L16.1987 8.95736L14.3645 9.45598L13.1265 13.4464L13.7273 14.838L16.9146 14.9446ZM18.4103 8.76047C18.2803 7.87102 18.0126 7.02628 17.6295 6.2486L17.146 7.79343L18.4103 8.76047ZM16.5712 4.60804L15.6498 7.55216L13.9263 8.02065L10.8119 5.65083V3.87196L13.2491 2.14306C14.551 2.68205 15.6899 3.53522 16.5712 4.60804ZM11.4011 1.61492L10.185 2.47764L8.9852 1.55995C9.31795 1.52036 9.6566 1.5 10 1.5C10.4772 1.5 10.9453 1.53933 11.4011 1.61492ZM7.39409 0.342926C6.81595 0.49847 6.25832 0.704392 5.72662 0.955974C4.60584 1.48645 3.59987 2.21945 2.75498 3.10724L2.75364 3.10729C2.30425 3.57948 1.90055 4.09555 1.54961 4.64842L1.551 4.64837C0.568795 6.19581 0 8.03148 0 10C0 10.0577 0.000488555 10.1153 0.00146175 10.1727L0 10.1738C0.0101661 10.7709 0.0726529 11.3552 0.183073 11.9223L0.184391 11.9213C0.414448 13.1035 0.852756 14.2112 1.45958 15.2048L1.45802 15.2049C1.7765 15.7264 2.14141 16.2164 2.54699 16.6693L2.54859 16.6692C3.71639 17.9731 5.22139 18.9686 6.92648 19.5188C7.47174 19.6947 8.0377 19.8256 8.61939 19.9059C9.07072 19.9682 9.53153 20 10 20C15.5228 20 20 15.5228 20 10C20 4.47715 15.5228 0 10 0C9.09853 0 8.22492 0.119283 7.39409 0.342926ZM6.35063 17.6789L5.99847 16.5538L4.64222 16.5992C5.164 17.0233 5.73704 17.3868 6.35063 17.6789ZM3.23375 15.1454L6.01639 15.0523L7.02893 13.2986L5.85618 9.5184L3.9823 9.0163L1.54506 10.8805C1.70904 12.4739 2.31314 13.9367 3.23375 15.1454ZM1.56055 8.9802L2.8494 7.99436L2.84972 7.99317L2.32986 6.33223C1.93769 7.15088 1.67272 8.04206 1.56055 8.9802ZM3.38052 4.66732L4.28068 7.54334L6.21952 8.06285L9.31194 5.70974V3.69837L7.10096 2.0072C5.62853 2.54137 4.34564 3.47083 3.38052 4.66732ZM11.8016 12.6547H8.80111L8.31211 12.3723L7.30391 9.12258L10.1006 6.99447L12.8974 9.12258L11.8016 12.6547Z" fill="#008294"/>
</g>
</g>
</g>
<defs>
<clipPath id="clip0_2_2361">
<rect width="20" height="20" fill="white"/>
</clipPath>
<clipPath id="clip1_2_2361">
<rect width="20" height="20" fill="white"/>
</clipPath>
<clipPath id="clip2_2_2361">
<rect width="20" height="20" fill="white"/>
</clipPath>
</defs>
</svg>
