<svg width="20" height="20" viewBox="0 0 20 20" fill="none" xmlns="http://www.w3.org/2000/svg">
<g clip-path="url(#clip0_2_2343)">
<g clip-path="url(#clip1_2_2343)">
<g clip-path="url(#clip2_2_2343)">
<path fill-rule="evenodd" clip-rule="evenodd" d="M5.6843 2.68751L3.75307 5.08415C4.56068 5.50521 4.90802 6.58812 4.32221 7.42399L2.78025 9.62418H8.29283L6.75087 7.42399C6.11434 6.51574 6.57956 5.31582 7.53985 4.99025L5.6843 2.68751ZM9.39813 4.90572L6.07363 0.780027C5.87349 0.531658 5.4951 0.531658 5.29497 0.780027L1.97046 4.90572L1.96134 4.91704L1.80679 5.10884L1.41746 5.592C1.23999 5.81224 1.28757 6.10482 1.46584 6.27246C1.50873 6.3128 1.55918 6.3459 1.61589 6.36902C1.67352 6.39253 1.73762 6.40572 1.80679 6.40572H2.42729H2.67361H2.68815H2.86926H3.01195C3.09288 6.40572 3.14029 6.49684 3.09384 6.56311L3.01195 6.67996L2.29086 7.70887L2.1529 7.90572L0.948557 9.62418L0.946017 9.6278L0.858293 9.75297L0.448836 10.3372C0.216606 10.6686 0.453654 11.1241 0.858293 11.1241H1.57173H1.72458H1.72901H4.80712V13.8339C4.42691 13.7959 4.04123 13.7764 3.65101 13.7764C2.94817 13.7764 2.26007 13.8395 1.59206 13.9604C1.16285 14.038 0.919729 14.4833 1.0555 14.8978C1.17808 15.272 1.56769 15.4857 1.95586 15.4194C2.50631 15.3254 3.07259 15.2764 3.65101 15.2764C6.84934 15.2764 9.69833 16.7791 11.5279 19.1212C11.7362 19.3878 12.0863 19.5081 12.4078 19.4028C12.8826 19.2473 13.0834 18.6848 12.7797 18.2881C12.0986 17.3984 11.2903 16.6112 10.3821 15.9535C12.2031 14.0276 14.7822 12.8259 17.642 12.8259C18.1303 12.8259 18.6104 12.8609 19.08 12.9286C19.5529 12.9968 20.0006 12.6459 20.0006 12.1681C20.0006 11.8186 19.7558 11.5145 19.4104 11.4612C18.834 11.3721 18.2434 11.3259 17.642 11.3259C17.2586 11.3259 16.8796 11.3447 16.5058 11.3814V9.21914H18.1882H18.1926H18.3455H19.0589C19.4635 9.21914 19.7006 8.76355 19.4684 8.43218L19.0589 7.84794L18.9712 7.72277L18.9686 7.71914L18.3625 6.85429L18.2246 6.65744L17.5035 5.62853L17.4216 5.51168C17.3751 5.44541 17.4225 5.35429 17.5035 5.35429H17.6275H17.642H17.6462H17.8884H18.5089C18.6633 5.35429 18.7924 5.28852 18.8809 5.18909C18.9094 5.15704 18.9337 5.12149 18.9532 5.08352C19.038 4.91886 19.0336 4.70865 18.8982 4.54057L18.5089 4.05741L18.3543 3.86561L18.3452 3.85429L15.9112 0.833738C15.7111 0.585369 15.3327 0.585369 15.1325 0.833738L12.6986 3.85429L12.6894 3.86561L12.5349 4.05741L12.1456 4.54057C12.0769 4.62573 12.042 4.7217 12.0352 4.81709C12.0344 4.82831 12.034 4.83952 12.034 4.8507C12.0333 5.10965 12.2371 5.35429 12.5349 5.35429H13.1554H13.2982C13.3319 5.35429 13.3599 5.37013 13.3776 5.39341L13.3809 5.39811C13.4027 5.43038 13.4059 5.47486 13.3801 5.51168L13.2982 5.62853L12.5771 6.65744L12.5349 6.71767L12.4406 6.85223L11.833 7.71914L11.8305 7.72277L11.7428 7.84794L11.3333 8.43218C11.1011 8.76355 11.3381 9.21914 11.7428 9.21914H12.4562H12.6091H12.6135H15.0058V11.6297C12.7351 12.1628 10.724 13.3694 9.19479 15.0273C9.15859 15.0665 9.12785 15.1074 9.10227 15.1494C8.23198 14.6795 7.29417 14.3186 6.30712 14.085V11.1241H9.34408H9.34851H9.50135H10.2148C10.6194 11.1241 10.8564 10.6686 10.6242 10.3372L10.2148 9.75297L10.127 9.6278L10.1245 9.62418L8.92018 7.90572L8.78223 7.70887L8.06113 6.67996L7.97924 6.56311C7.9328 6.49684 7.98021 6.40572 8.06113 6.40572H8.20382H8.68045H8.69499H8.9413H9.46026H9.5618C9.60664 6.40572 9.64934 6.40018 9.68953 6.38988C10.0259 6.30366 10.1865 5.88418 9.95113 5.592L9.5618 5.10884L9.40725 4.91704L9.39813 4.90572ZM14.3261 4.22522L15.5219 2.74122L16.6268 4.11237C15.9176 4.57839 15.6413 5.5851 16.1932 6.37256L17.1369 7.71914H13.6647L14.6085 6.37256C15.1192 5.64377 14.9206 4.72719 14.3261 4.22522Z" fill="#31775A"/>
</g>
</g>
</g>
<defs>
<clipPath id="clip0_2_2343">
<rect width="20" height="20" fill="white"/>
</clipPath>
<clipPath id="clip1_2_2343">
<rect width="20" height="20" fill="white"/>
</clipPath>
<clipPath id="clip2_2_2343">
<rect width="20" height="20" fill="white"/>
</clipPath>
</defs>
</svg>
